<svg width="74" height="35" viewBox="0 0 74 35" fill="none" xmlns="http://www.w3.org/2000/svg">
<path d="M3.3016 10.264C2.668 10.264 2.1224 10.1936 1.6648 10.0528C1.21893 9.92373 0.796533 9.77707 0.3976 9.6128V7.3072C0.644 7.47147 0.919733 7.6416 1.2248 7.8176C1.52987 7.98187 1.86427 8.1168 2.228 8.2224C2.60347 8.328 2.99653 8.3808 3.4072 8.3808C3.8296 8.3808 4.12293 8.3104 4.2872 8.1696C4.4632 8.01707 4.5512 7.8352 4.5512 7.624C4.5512 7.42453 4.4632 7.26613 4.2872 7.1488C4.1112 7.01973 3.8824 6.91413 3.6008 6.832C3.3192 6.74987 3.02 6.6736 2.7032 6.6032C2.4216 6.54453 2.14 6.45653 1.8584 6.3392C1.5768 6.21013 1.32453 6.04 1.1016 5.8288C0.878667 5.6176 0.6968 5.35947 0.556 5.0544C0.426933 4.7376 0.3624 4.35627 0.3624 3.9104C0.3624 3.33547 0.473867 2.86027 0.6968 2.4848C0.919733 2.0976 1.21307 1.78667 1.5768 1.552C1.94053 1.31733 2.3336 1.15307 2.756 1.0592C3.1784 0.953599 3.58907 0.906666 3.988 0.918399C4.71547 0.941866 5.2904 1.024 5.7128 1.1648C6.14693 1.29387 6.54 1.464 6.892 1.6752V3.7344C6.49307 3.51147 6.09413 3.30613 5.6952 3.1184C5.308 2.91893 4.86213 2.8192 4.3576 2.8192C3.9 2.8192 3.57147 2.8896 3.372 3.0304C3.17253 3.1712 3.0728 3.35893 3.0728 3.5936C3.0728 3.81653 3.13733 3.99253 3.2664 4.1216C3.4072 4.25067 3.58907 4.35627 3.812 4.4384C4.03493 4.5088 4.28133 4.5792 4.5512 4.6496C4.84453 4.72 5.14373 4.808 5.4488 4.9136C5.7656 5.00747 6.05893 5.14827 6.3288 5.336C6.6104 5.512 6.83333 5.76427 6.9976 6.0928C7.1736 6.4096 7.2616 6.832 7.2616 7.36C7.24987 8.07573 7.05627 8.65067 6.6808 9.0848C6.30533 9.5072 5.8184 9.81227 5.22 10C4.63333 10.176 3.99387 10.264 3.3016 10.264ZM17.341 10.264C16.5197 10.264 15.7922 10.1349 15.1586 9.8768C14.525 9.61867 14.0322 9.2256 13.6802 8.6976C13.3282 8.15787 13.1522 7.45973 13.1522 6.6032V1.0944H15.7746V6.392C15.7746 6.9552 15.8978 7.3776 16.1442 7.6592C16.4024 7.92907 16.8072 8.064 17.3586 8.064C17.9218 8.064 18.3266 7.92907 18.573 7.6592C18.8194 7.3776 18.9426 6.9552 18.9426 6.392V1.0944H21.4066V6.6032C21.4066 7.8704 21.0429 8.79733 20.3154 9.384C19.588 9.97067 18.5965 10.264 17.341 10.264ZM32.5273 10.264C32.3513 10.264 32.0932 10.2464 31.7529 10.2112C31.4127 10.176 31.0607 10.0997 30.6969 9.9824C30.3332 9.85333 30.0223 9.65973 29.7641 9.4016L30.2921 8.5744V13.1856H27.7225V2.9776C27.7225 2.5904 27.834 2.26187 28.0569 1.992C28.2799 1.72213 28.5849 1.4992 28.9721 1.3232C29.3593 1.1472 29.8052 1.01813 30.3097 0.935999C30.826 0.842133 31.3775 0.7952 31.9641 0.7952C32.8559 0.7952 33.6361 0.947733 34.3049 1.2528C34.9855 1.54613 35.5135 2.0448 35.8889 2.7488C36.2761 3.4528 36.4697 4.41493 36.4697 5.6352C36.4697 6.5504 36.3113 7.36 35.9945 8.064C35.6777 8.75627 35.226 9.296 34.6393 9.6832C34.0644 10.0704 33.3604 10.264 32.5273 10.264ZM31.7529 8.152C32.2223 8.152 32.6095 8.06987 32.9145 7.9056C33.2196 7.74133 33.4484 7.47147 33.6009 7.096C33.7652 6.7088 33.8473 6.19253 33.8473 5.5472C33.8473 5.00747 33.7887 4.54987 33.6713 4.1744C33.554 3.79893 33.3487 3.51147 33.0553 3.312C32.7737 3.1008 32.3748 2.9952 31.8585 2.9952C31.2953 2.9952 30.8905 3.05387 30.6441 3.1712C30.4095 3.2768 30.2921 3.4176 30.2921 3.5936V7.7824C30.5151 7.91147 30.7615 8.00533 31.0313 8.064C31.3012 8.12267 31.5417 8.152 31.7529 8.152ZM46.3232 10.264C45.4315 10.264 44.6395 10.0821 43.9472 9.7184C43.2667 9.34293 42.7328 8.81493 42.3456 8.1344C41.9702 7.44213 41.7824 6.6208 41.7824 5.6704C41.7824 4.1216 42.1638 2.9248 42.9264 2.08C43.7008 1.22347 44.8038 0.7952 46.2352 0.7952C47.2208 0.7952 48.0128 1.0064 48.6112 1.4288C49.2214 1.8512 49.6672 2.4672 49.9488 3.2768C50.2304 4.0864 50.3654 5.072 50.3536 6.2336H43.5776L43.296 4.5616H48.1888L47.8016 5.3888C47.7899 4.4384 47.655 3.7696 47.3968 3.3824C47.1387 2.9952 46.7163 2.8016 46.1296 2.8016C45.8011 2.8016 45.5019 2.88373 45.232 3.048C44.9739 3.21227 44.7686 3.488 44.616 3.8752C44.4752 4.25067 44.4048 4.7728 44.4048 5.4416C44.4048 6.2864 44.6043 6.9376 45.0032 7.3952C45.4139 7.8528 46.0651 8.0816 46.9568 8.0816C47.2854 8.0816 47.608 8.0464 47.9248 7.976C48.2534 7.89387 48.5584 7.8 48.84 7.6944C49.1216 7.5888 49.3622 7.49493 49.5616 7.4128V9.6656C49.1392 9.8416 48.664 9.9824 48.136 10.088C47.6198 10.2053 47.0155 10.264 46.3232 10.264ZM56.1757 10V2.0272C56.3399 1.8864 56.6333 1.728 57.0557 1.552C57.4781 1.36427 57.9591 1.2 58.4989 1.0592C59.0503 0.906666 59.6018 0.830399 60.1533 0.830399C60.7047 0.830399 61.1389 0.871466 61.4557 0.9536C61.7725 1.03573 62.013 1.14133 62.1773 1.2704V3.1888C61.9778 3.14187 61.7255 3.10667 61.4205 3.0832C61.1154 3.05973 60.7986 3.048 60.4701 3.048C60.1415 3.03627 59.8306 3.03627 59.5373 3.048C59.2439 3.05973 58.9975 3.0832 58.7981 3.1184V10H56.1757ZM13.7849 31.264C13.0926 31.264 12.4531 31.1877 11.8665 31.0352C11.2915 30.8827 10.7929 30.6304 10.3705 30.2784C9.94806 29.9147 9.61366 29.4219 9.36726 28.8C9.1326 28.1781 9.01526 27.4037 9.01526 26.4768C9.01526 25.0336 9.36726 23.8955 10.0713 23.0624C10.787 22.2293 11.8547 21.8128 13.2745 21.8128C13.4622 21.8128 13.7086 21.8304 14.0137 21.8656C14.3187 21.8891 14.6355 21.9595 14.9641 22.0768C15.2926 22.1941 15.5859 22.3936 15.8441 22.6752L15.3161 23.4848V18.4336H17.9209V28.6768C17.9209 29.1109 17.8035 29.4923 17.5689 29.8208C17.3342 30.1376 17.0174 30.4016 16.6185 30.6128C16.2313 30.824 15.7913 30.9824 15.2985 31.088C14.8057 31.2053 14.3011 31.264 13.7849 31.264ZM13.8905 29.064C14.3129 29.064 14.6531 29.0112 14.9113 28.9056C15.1811 28.7883 15.3161 28.6181 15.3161 28.3952V24.2944C15.1049 24.1771 14.8761 24.0891 14.6297 24.0304C14.395 23.96 14.1662 23.9248 13.9433 23.9248C13.4505 23.9248 13.0339 24.0069 12.6937 24.1712C12.3534 24.3355 12.0953 24.6112 11.9193 24.9984C11.755 25.3856 11.6729 25.9077 11.6729 26.5648C11.6729 27.0811 11.7433 27.5269 11.8841 27.9024C12.0249 28.2661 12.2537 28.5536 12.5705 28.7648C12.899 28.9643 13.339 29.064 13.8905 29.064ZM28.4395 31.264C27.6181 31.264 26.8907 31.1349 26.2571 30.8768C25.6235 30.6187 25.1307 30.2256 24.7787 29.6976C24.4267 29.1579 24.2507 28.4597 24.2507 27.6032V22.0944H26.8731V27.392C26.8731 27.9552 26.9963 28.3776 27.2427 28.6592C27.5008 28.9291 27.9056 29.064 28.4571 29.064C29.0203 29.064 29.4251 28.9291 29.6715 28.6592C29.9179 28.3776 30.0411 27.9552 30.0411 27.392V22.0944H32.5051V27.6032C32.5051 28.8704 32.1413 29.7973 31.4139 30.384C30.6864 30.9707 29.6949 31.264 28.4395 31.264ZM43.6258 31.264C43.4498 31.264 43.1916 31.2464 42.8514 31.2112C42.5111 31.176 42.1591 31.0997 41.7954 30.9824C41.4316 30.8533 41.1207 30.6597 40.8626 30.4016L41.3906 29.5744V34.1856H38.821V23.9776C38.821 23.5904 38.9324 23.2619 39.1554 22.992C39.3783 22.7221 39.6834 22.4992 40.0706 22.3232C40.4578 22.1472 40.9036 22.0181 41.4082 21.936C41.9244 21.8421 42.4759 21.7952 43.0626 21.7952C43.9543 21.7952 44.7346 21.9477 45.4034 22.2528C46.0839 22.5461 46.6119 23.0448 46.9874 23.7488C47.3746 24.4528 47.5682 25.4149 47.5682 26.6352C47.5682 27.5504 47.4098 28.36 47.093 29.064C46.7762 29.7563 46.3244 30.296 45.7378 30.6832C45.1628 31.0704 44.4588 31.264 43.6258 31.264ZM42.8514 29.152C43.3207 29.152 43.7079 29.0699 44.013 28.9056C44.318 28.7413 44.5468 28.4715 44.6994 28.096C44.8636 27.7088 44.9458 27.1925 44.9458 26.5472C44.9458 26.0075 44.8871 25.5499 44.7698 25.1744C44.6524 24.7989 44.4471 24.5115 44.1538 24.312C43.8722 24.1008 43.4732 23.9952 42.957 23.9952C42.3938 23.9952 41.989 24.0539 41.7426 24.1712C41.5079 24.2768 41.3906 24.4176 41.3906 24.5936V28.7824C41.6135 28.9115 41.8599 29.0053 42.1298 29.064C42.3996 29.1227 42.6402 29.152 42.8514 29.152ZM57.4217 31.264C56.53 31.264 55.738 31.0821 55.0457 30.7184C54.3652 30.3429 53.8313 29.8149 53.4441 29.1344C53.0686 28.4421 52.8809 27.6208 52.8809 26.6704C52.8809 25.1216 53.2622 23.9248 54.0249 23.08C54.7993 22.2235 55.9022 21.7952 57.3337 21.7952C58.3193 21.7952 59.1113 22.0064 59.7097 22.4288C60.3198 22.8512 60.7657 23.4672 61.0473 24.2768C61.3289 25.0864 61.4638 26.072 61.4521 27.2336H54.6761L54.3945 25.5616H59.2873L58.9001 26.3888C58.8884 25.4384 58.7534 24.7696 58.4953 24.3824C58.2372 23.9952 57.8148 23.8016 57.2281 23.8016C56.8996 23.8016 56.6004 23.8837 56.3305 24.048C56.0724 24.2123 55.867 24.488 55.7145 24.8752C55.5737 25.2507 55.5033 25.7728 55.5033 26.4416C55.5033 27.2864 55.7028 27.9376 56.1017 28.3952C56.5124 28.8528 57.1636 29.0816 58.0553 29.0816C58.3838 29.0816 58.7065 29.0464 59.0233 28.976C59.3518 28.8939 59.6569 28.8 59.9385 28.6944C60.2201 28.5888 60.4606 28.4949 60.6601 28.4128V30.6656C60.2377 30.8416 59.7625 30.9824 59.2345 31.088C58.7182 31.2053 58.114 31.264 57.4217 31.264ZM67.2741 31V23.0272C67.4384 22.8864 67.7317 22.728 68.1541 22.552C68.5765 22.3643 69.0576 22.2 69.5973 22.0592C70.1488 21.9067 70.7002 21.8304 71.2517 21.8304C71.8032 21.8304 72.2373 21.8715 72.5541 21.9536C72.8709 22.0357 73.1114 22.1413 73.2757 22.2704V24.1888C73.0762 24.1419 72.824 24.1067 72.5189 24.0832C72.2138 24.0597 71.897 24.048 71.5685 24.048C71.24 24.0363 70.929 24.0363 70.6357 24.048C70.3424 24.0597 70.096 24.0832 69.8965 24.1184V31H67.2741Z" fill="#949494"/>
</svg>
